<?xml version="1.0" encoding="utf-8"?>
<!-- Generator: Adobe Illustrator 28.0.0, SVG Export Plug-In . SVG Version: 6.00 Build 0)  -->
<svg version="1.1" id="Layer_1" xmlns="http://www.w3.org/2000/svg" xmlns:xlink="http://www.w3.org/1999/xlink" x="0px" y="0px"
	 viewBox="0 0 858.2 858.6" style="enable-background:new 0 0 858.2 858.6;" xml:space="preserve">
<style type="text/css">
	.st0{display:none;fill:#39FF14;}
	.st1{display:none;}
	.st2{display:inline;fill:#39FF14;}
	.st3{display:inline;}
	.st4{fill:#39FF14;stroke:#39FF14;stroke-width:30;stroke-linecap:square;stroke-miterlimit:10;}
</style>
<ellipse class="st0" cx="410.4" cy="429" rx="668.5" ry="632"/>
<g class="st1">
	<rect x="35.5" y="35.5" class="st2" width="787" height="787"/>
	<path class="st3" d="M822,36v786H36V36H822 M823,35H35v788h788V35L823,35z"/>
</g>
<path class="st4" d="M35,35v197.8 M35.2,35.2H233"/>
<path class="st4" d="M35.5,823.3h197.8 M35.7,823.1V625.4"/>
<path class="st4" d="M823.2,35.1H625.5 M823,35.3v197.8"/>
<path class="st4" d="M823.2,823.6V625.8 M823,823.3H625.3"/>
<path class="st4" d="M429.1,303.8v124.5 M429.1,428.3v126.5"/>
<path class="st4" d="M554.6,429.3H430.1 M430.1,429.3H303.6"/>
</svg>
